# xmcd CD database file
#
# Track frame offsets:
#	150
#	12473
#	24698
#	39335
#	52643
#	65409
#	77366
#	90003
#	103703
#	117547
#	128765
#	141519
#	155358
#	166823
#	181248
#	193905
#
# Disc length: 2758 seconds
#
# Revision: 1
# Processed by: cddbd v1.5PL3 Copyright (c) Steve Scherf et al.
# Submitted via: CDex 1.50beta10
#
DISCID=c50ac410
DTITLE=Sarah Vaughan - Masters of Jazz
DYEAR=2002
DGENRE=Jazz
TTITLE0=(Sometimes I feel like A) Motherless child
TTITLE1=I'm through with love
TTITLE2=Lover man
TTITLE3=A hundred years from today
TTITLE4=East of the sun (And west of the moon)
TTITLE5=Signing off
TTITLE6=Don't worry 'bout me
TTITLE7=Time after time
TTITLE8=September song
TTITLE9=Trouble is a man
TTITLE10=Love me or leave me
TTITLE11=The one I love belongs to somebody else
TTITLE12=I feel so smoochie
TTITLE13=It's you or no one
TTITLE14=What a difference a day makes
TTITLE15=The lord's prayer
EXTD=YEAR: 2002
EXTT0=
EXTT1=
EXTT2=
EXTT3=
EXTT4=
EXTT5=
EXTT6=
EXTT7=
EXTT8=
EXTT9=
EXTT10=
EXTT11=
EXTT12=
EXTT13=
EXTT14=
EXTT15=
PLAYORDER=
